<svg xmlns="http://www.w3.org/2000/svg" viewBox="0 0 2114.97 2071.05"><defs><style>.cls-1{fill:#f1f5f9;stroke:#7b7d7e;stroke-linecap:round;stroke-miterlimit:10;stroke-width:35px;stroke-dasharray:100;}</style></defs><g id="Camada_2" data-name="Camada 2"><g id="Layer_1" data-name="Layer 1"><path class="cls-1" d="M1085.7,2053.55a246.31,246.31,0,0,1-38.87-3.2c-17.64-2.78-32.53-13.93-40.85-30.58-9.83-19.66-9.78-46.46.13-65.15,12.42-23.45,35.63-33,51.72-36.87a1952.59,1952.59,0,0,1-25-324.7l-14-22.79-87.82,54.12a317.54,317.54,0,0,1-167,47.54,322.6,322.6,0,0,1-71.6-8.09,317.79,317.79,0,0,1-184-118.54c-39.72-3.94-65.34-33.68-74-43.74C420.87,1486,405,1464.71,401.1,1438c-2.12-14.56.09-33.41,8.06-50.7L72.82,841.47,72,840.6l-2-3.82c-5.14-8-9.83-15.54-14.32-23l-.72-1.19-.63-1.23c-3-5.9-5.82-11.74-8.52-17.39-1.32-2.76-2.64-5.53-4-8.28l-.7-1.44-.58-1.49C37.9,776.3,35.79,770,33.75,764c-1-3-2-5.89-3-8.69L30.35,754,30,752.76c-1.88-6.74-3.37-13.23-4.81-19.5-.68-3-1.36-5.94-2.08-8.91l-.24-1-.19-1C14.84,681.2,15.92,637,25.81,594.66l.08-.31C36.13,552,55,512.09,80.51,478.87l1.26-1.55c2-2.33,3.91-4.68,5.86-7,4.1-5,8.34-10.09,13.06-15.27l.89-1,1-.91c2.14-2.06,4.28-4.18,6.56-6.43,4.55-4.51,9.26-9.17,14.48-13.84l1.17-1.06,1.25-.95c2.48-1.88,4.93-3.79,7.37-5.68,4.91-3.81,10-7.75,15.31-11.63l1.13-.82L151,412c6.39-4,13-8.06,20.11-12.29l1-1,4.22-2.11L566.74,156l.53-.32c51.15-32.34,109-49.61,167.41-50a162.88,162.88,0,0,1,24.4.69c2,.17,4,.32,5.95.47,4.53.34,9.21.7,14.16,1.26l1.42.16,1.41.27c2.82.52,5.7,1,8.76,1.54,10,1.72,21.36,3.67,33,7.28,12.42,3,23.73,7.43,33.77,11.32,2.27.88,4.55,1.77,6.83,2.63l1.54.62c5.1,2.18,9.75,4.53,13.85,6.6l1.33.68c126.47-79.69,272-121.68,422.53-121.68A793.9,793.9,0,0,1,1752.7,1466a789.11,789.11,0,0,1-209,102.18c-6,19.9-10.62,38-14.07,55-6.71,33.08-6.54,57.75.52,77.64a117.54,117.54,0,0,0,32.87,49.15c16.8,14.7,35.91,24,53.8,26.26,6.64.83,11.67-.14,16.8-3.23,8.44-5.1,17-13.68,26.15-22.77l2.09-2.08c13.71-13.66,45.52-26.94,73.28-13.7,10.81,5.16,35.48,21.81,31,65-2.67,26-7.81,59.84-24,91.37-10,19.62-29.42,31.51-50.52,31.51a55.69,55.69,0,0,1-51.84-35.2,146.5,146.5,0,0,1-49.45-2.07c-77.61-16.18-143.26-75.89-167.25-152.11-12.7-40.37-13.37-85-2-136.51a801,801,0,0,1-117.55,8.66c-26.33,0-52.85-1.31-79.06-3.9l-76,46.85a1826.79,1826.79,0,0,0,37.27,329.23c6.3,30.39-11.86,60.38-41.36,68.25A225,225,0,0,1,1085.7,2053.55Z"/></g></g></svg>