<svg xmlns="http://www.w3.org/2000/svg" viewBox="0 0 2079.97 2036.05"><defs><style>.cls-1{fill:#fff;}.cls-10,.cls-2{fill:#303030;}.cls-3{fill:#ff4553;}.cls-10,.cls-4{opacity:0.1;}.cls-5{fill:#ed1c24;}.cls-6{opacity:0.2;}.cls-7{fill:#f4f4f4;}.cls-8{fill:#e2d9da;}.cls-9{fill:#ffa1ac;}.cls-11{opacity:0.61;}</style></defs><g id="Camada_2" data-name="Camada 2"><g id="Layer_1" data-name="Layer 1"><path class="cls-1" d="M1068.2,2036.05a246.31,246.31,0,0,1-38.87-3.2c-17.64-2.78-32.53-13.93-40.85-30.58-9.83-19.66-9.78-46.46.13-65.15,12.42-23.45,35.63-33,51.72-36.87a1952.59,1952.59,0,0,1-25-324.7l-14-22.79-87.82,54.12a317.54,317.54,0,0,1-167,47.54,322.6,322.6,0,0,1-71.6-8.09,317.79,317.79,0,0,1-184-118.54c-39.72-3.94-65.34-33.68-74-43.74-13.4-15.55-29.28-36.84-33.17-63.59-2.12-14.56.09-33.41,8.06-50.7L55.32,824l-.87-.87-2.05-3.82c-5.14-8-9.83-15.54-14.32-23l-.72-1.19-.63-1.23c-3-5.9-5.82-11.74-8.52-17.39-1.32-2.76-2.64-5.53-4-8.28l-.7-1.44L23,765.3c-2.55-6.5-4.66-12.78-6.7-18.84-1-3-2-5.89-3-8.69l-.43-1.24-.36-1.27c-1.88-6.74-3.37-13.23-4.81-19.5-.68-3-1.36-5.94-2.08-8.91l-.24-1-.19-1c-7.83-41.18-6.75-85.34,3.14-127.72l.08-.31C18.63,534.52,37.52,494.59,63,461.37l1.26-1.55c2-2.33,3.91-4.68,5.86-7,4.1-5,8.34-10.09,13.06-15.27l.89-1,1-.91c2.14-2.06,4.28-4.18,6.56-6.43,4.55-4.51,9.26-9.17,14.48-13.84l1.17-1.06,1.25-.95c2.48-1.88,4.93-3.79,7.37-5.68,4.91-3.81,10-7.75,15.31-11.63l1.13-.82,1.17-.74c6.39-4,13-8.06,20.11-12.29l1-1,4.22-2.11,390.4-240.59.53-.32c51.15-32.34,109-49.61,167.41-50a162.88,162.88,0,0,1,24.4.69c2,.17,4,.32,5.95.47,4.53.34,9.21.7,14.16,1.26l1.42.16,1.41.27c2.82.52,5.7,1,8.76,1.54,10,1.72,21.36,3.67,33,7.28,12.42,3,23.73,7.43,33.77,11.32,2.27.88,4.55,1.77,6.83,2.63l1.54.62c5.1,2.18,9.75,4.53,13.85,6.6l1.33.68C990.06,42,1135.61,0,1286.12,0A793.9,793.9,0,0,1,1735.2,1448.54a789.11,789.11,0,0,1-209,102.18c-6,19.9-10.62,38-14.07,55-6.71,33.08-6.54,57.75.52,77.64a117.54,117.54,0,0,0,32.87,49.15c16.8,14.7,35.91,24,53.8,26.26,6.64.83,11.67-.14,16.8-3.23,8.44-5.1,17-13.68,26.15-22.77l2.09-2.08c13.71-13.66,45.52-26.94,73.28-13.7,10.81,5.16,35.48,21.81,31,65-2.67,26-7.81,59.84-24,91.37-10,19.62-29.42,31.51-50.52,31.51a55.69,55.69,0,0,1-51.84-35.2,146.5,146.5,0,0,1-49.45-2.07c-77.61-16.18-143.26-75.89-167.25-152.11-12.7-40.37-13.37-85-2-136.51a801,801,0,0,1-117.55,8.66c-26.33,0-52.85-1.31-79.06-3.9l-76,46.85a1826.79,1826.79,0,0,0,37.27,329.23c6.3,30.39-11.86,60.38-41.36,68.25A225,225,0,0,1,1068.2,2036.05ZM462.81,1409.31Zm2.35-7.48h0Z"/><path class="cls-2" d="M1708.92,1778c4-38.75-30.07-25.1-36.31-18.89-11,11-22.36,22.64-35.78,30.75-13.19,8-27.22,10.58-42.44,8.68-28-3.49-54.14-17.44-75.18-35.85-20.11-17.6-35.29-40.75-44.22-65.86-11.33-31.9-8.64-66.38-2-99,8.43-41.57,21.94-82.5,36.31-122.35,7-19.29-22.73-30.87-29.7-11.56-14.52,40.27-27.44,81.4-36.72,123.22-8.57,38.6-11,78.31,1,116.42,19.54,62.09,73.49,111.67,137.25,125,21.55,4.49,44.05,3,63.9-7,3.42-1.72,6.71-3.62,9.91-5.64a124.15,124.15,0,0,0,3.68,36.16c4,15.77,23.29,17.33,30.56,3.14C1701.38,1831.32,1706.18,1804.64,1708.92,1778Z"/><path class="cls-2" d="M1097.75,1426.56c.53-6-1.79-11.36-6.36-14.56-5.19-3.64-12.54-4.11-18.7-1.24a17.73,17.73,0,0,0-10.36,14.92,1899.9,1899.9,0,0,0,25.05,511.81c-12.34-1.58-30.36.32-30.62.35-5.85.74-25.49,4.21-32.81,18-3.39,6.41-4.1,19.7.32,28.54,2.54,5.08,6.45,8.18,11.32,8.95a208.47,208.47,0,0,0,32.61,2.7,185,185,0,0,0,48.43-6.56c9.17-2.45,14.54-11.69,12.5-21.51A1868.52,1868.52,0,0,1,1097.75,1426.56Z"/><circle class="cls-3" cx="1286.12" cy="793.85" r="753.85"/><g class="cls-4"><path class="cls-1" d="M1286.12,1500.57a25.59,25.59,0,0,0,0-51.17c-361.47,0-655.55-294.08-655.55-655.55a25.59,25.59,0,0,0-51.17,0c0,188.77,73.51,366.25,207,499.73S1097.35,1500.57,1286.12,1500.57Z"/></g><g class="cls-4"><path class="cls-1" d="M1967.25,819.44a25.59,25.59,0,0,0,25.59-25.59c0-188.77-73.52-366.24-207-499.72s-310.95-207-499.72-207a25.59,25.59,0,1,0,0,51.18c361.47,0,655.54,294.07,655.54,655.54A25.59,25.59,0,0,0,1967.25,819.44Z"/></g><circle class="cls-5" cx="1286.12" cy="793.85" r="462.98"/><circle class="cls-2" cx="1605.47" cy="704.23" r="52.88" transform="translate(-147.55 724.45) rotate(-24.35)"/><circle class="cls-2" cx="1195.23" cy="549.58" r="52.88" transform="translate(314.73 1527) rotate(-72.68)"/><path class="cls-2" d="M1332.92,595.75A74.08,74.08,0,0,0,1471.56,648Z"/><path class="cls-3" d="M570.63,172.27,178.32,414C47,495,6,667.66,86.92,799l420.54,682.42c80.93,131.34,253.63,172.34,385,91.41l392.32-241.76c131.33-80.94,172.33-253.63,91.4-385L955.6,263.68C874.66,132.34,702,91.34,570.63,172.27ZM1328,975.77c64.68,105,32,242.47-72.93,307.15l-392.3,241.76c-105,64.68-242.48,32-307.16-72.93L135.06,769.33c-64.68-105-32-242.48,72.93-307.16L600.3,220.42c105-64.68,242.47-32,307.15,72.93Z"/><path class="cls-5" d="M600.3,220.42,208,462.17c-105,64.68-137.61,202.2-72.93,307.16L555.6,1451.75c64.68,105,202.2,137.61,307.16,72.93l392.3-241.76c105-64.68,137.61-202.19,72.93-307.15L907.45,293.35C842.77,188.39,705.26,155.74,600.3,220.42Z"/><path class="cls-1" d="M1122.79,986,656.94,1273a6.22,6.22,0,0,1-8.55-2L281.62,675.83a6.21,6.21,0,0,1,2-8.55L749.5,380.2a6.22,6.22,0,0,1,8.55,2L1124.82,977.4A6.22,6.22,0,0,1,1122.79,986Z"/><rect class="cls-3" x="1022.72" y="1392.79" width="150.08" height="148.1" transform="translate(-606.35 793.99) rotate(-31.64)"/><rect class="cls-5" x="1041.19" y="1392.79" width="113.14" height="148.1" transform="translate(-606.35 794) rotate(-31.64)"/><g class="cls-4"><path class="cls-2" d="M1376.14,946.1,1115.28,522.79S1342.39,1293.71,867,1586.73a283.72,283.72,0,0,0,25.41-13.9l392.32-241.76C1416.07,1250.13,1457.07,1077.44,1376.14,946.1Z"/></g><g class="cls-6"><path class="cls-7" d="M264.15,890.56a9.43,9.43,0,0,1-13-3.08L174.6,763.21a9.43,9.43,0,0,1,16.05-9.89l76.58,124.27A9.43,9.43,0,0,1,264.15,890.56Z"/><path class="cls-7" d="M524.61,1313.21a9.43,9.43,0,0,1-13-3.08L290.78,951.74a9.43,9.43,0,0,1,16.05-9.89l220.85,358.39A9.42,9.42,0,0,1,524.61,1313.21Z"/><path class="cls-7" d="M159.51,668.12a9.31,9.31,0,0,1-4.91,1.4,9.45,9.45,0,0,1-9.47-9.39A196.84,196.84,0,0,1,239.3,490.71a9.43,9.43,0,1,1,9.89,16.05A178,178,0,0,0,164,660.06,9.43,9.43,0,0,1,159.51,668.12Z"/></g><rect class="cls-2" x="653.15" y="1067.97" width="22.42" height="146.34" transform="matrix(0.85, -0.52, 0.52, 0.85, -499.9, 518.19)"/><rect class="cls-2" x="683.47" y="1052.74" width="11.21" height="146.34" transform="matrix(0.85, -0.52, 0.52, 0.85, -488.24, 528.89)"/><rect class="cls-2" x="708.9" y="1033.62" width="22.42" height="146.34" transform="translate(-473.59 542.33) rotate(-31.64)"/><rect class="cls-2" x="739.21" y="1018.39" width="11.21" height="146.34" transform="translate(-461.93 553.04) rotate(-31.64)"/><rect class="cls-2" x="764.64" y="999.26" width="22.42" height="146.34" transform="translate(-447.28 566.47) rotate(-31.64)"/><rect class="cls-2" x="794.96" y="984.03" width="11.21" height="146.34" transform="translate(-435.62 577.18) rotate(-31.64)"/><rect class="cls-2" x="820.39" y="964.91" width="22.42" height="146.34" transform="translate(-420.97 590.61) rotate(-31.64)"/><rect class="cls-2" x="850.7" y="949.68" width="11.21" height="146.34" transform="translate(-409.31 601.31) rotate(-31.64)"/><rect class="cls-2" x="876.14" y="930.56" width="22.42" height="146.34" transform="translate(-394.66 614.75) rotate(-31.64)"/><rect class="cls-2" x="906.45" y="915.33" width="11.21" height="146.34" transform="translate(-383 625.45) rotate(-31.64)"/><rect class="cls-8" x="1051.85" y="1495.84" width="174.51" height="76.2" transform="translate(-635.4 825.66) rotate(-31.64)"/><path class="cls-2" d="M1389.61,1146.13c-1.46-13.68,1.64-25.84,9.52-36.59-5.85-4.91-9.48-10.65-10.36-16.51-.86-5.67.9-11.15,5.06-15.85,9.26-10.44,21.73-5.91,30-2.91a120.79,120.79,0,0,1,16.73,7.66c17.3-6.35,36.49-10.34,53.61-13.89,8.82-1.83,17.14-3.55,24-5.39,79.82-21.29,165.41-38.92,254.42-52.39,6.17-.93,11.77,1.13,15.37,5.63a19.33,19.33,0,0,1,2.47,18.86,18.83,18.83,0,0,1-3.4,5.59,18.39,18.39,0,0,1-11.14,6l-12.39,1.78c-154.53,22-257.91,45-307.36,68.34-7.22,21.51-19.57,34.73-42.1,45.27a15.7,15.7,0,0,1-14.49-.68A20,20,0,0,1,1389.61,1146.13Z"/><path class="cls-2" d="M423.18,1414.7c2.32,15.93,12.67,30.21,23.9,43.24,12.55,14.57,29.12,29.44,50.62,30.25,5.23.2,10.67-.53,15.05-2.93,6-3.26,9.14-9.06,11.28-14.73a72.73,72.73,0,0,0-4-59.93c-8.65-16.34-33.28-43.56-56.47-46.28C433.48,1360.79,420.35,1395.21,423.18,1414.7Z"/><circle class="cls-7" cx="1584.71" cy="679.73" r="16.25" transform="translate(659.91 2135.1) rotate(-80.78)"/><circle class="cls-7" cx="1172.23" cy="533.33" r="16.25" transform="translate(-33.78 985.1) rotate(-45)"/><path class="cls-9" d="M1376.14,946.1c-56.33-86.75-111.55-174.18-166.6-261.72L1045.61,421,964.69,288.69c-6.79-11-13.29-22.31-20.64-32.53-3.71-5.14-6.88-10.69-11-15.51l-12.27-14.54c-17.32-18.43-36.2-35.8-58-49l-8-5.23-8.45-4.43c-5.67-2.88-11.19-6.08-17-8.7-11.81-4.74-23.45-10-35.85-13.2-12.09-4.19-24.76-6-37.26-8.65-12.68-1.17-25.38-3.41-38.19-3-51.33-1.73-102.45,12.94-147.42,38.31,43.62-27.7,95.13-43.91,147.44-44.11a126.74,126.74,0,0,1,19.58.5c6.5.56,13,.93,19.53,1.67,12.85,2.39,25.89,4,38.39,8.06,12.79,3,24.87,8.16,37.14,12.8,6,2.57,11.78,5.74,17.69,8.59l8.81,4.4,8.36,5.22c22.85,13.09,42.79,30.73,60.78,49.84l12.84,15c4.31,5,7.66,10.69,11.54,16C960.53,261,967,272.08,973.86,283l81.82,131.77,161.57,264.82C1270.69,768.16,1324,856.79,1376.14,946.1Z"/><path class="cls-9" d="M178.32,414c-29.83,21.33-55.93,47.21-76.23,77A293.68,293.68,0,0,0,53.46,696c4.73,35.73,16.42,70.58,33.46,103q-7.42-11.54-14.61-23.38c-4.2-8.18-8.06-16.57-12.12-24.91-3.37-8.6-6.09-17.46-9.18-26.23-2.49-8.92-4.34-18-6.54-27.08-7-36.6-5.7-74.76,2.79-111.15,8.79-36.31,24.8-71,47.49-100.53,6-7.09,11.77-14.41,18-21.25,6.69-6.44,13.11-13.14,20-19.3,7.37-5.63,14.58-11.39,22-16.81Q166.48,421,178.32,414Z"/><path class="cls-5" d="M586.32,677.15c-3.13,20.79-7.4,49.07-6.05,62,1.28,12.16,3.53,32.34,12.72,56.65,4.26,11.28,8.15,21.33,16.87,32.66,6.17,8,14.42,18.72,29.64,24.82,14.19,5.69,30.38,6.72,34.74,6,26.7-4.19,40.21-13.49,53.11-25.8,14-13.4,18.89-39.07,20.49-48.28a85.8,85.8,0,0,0-.86-33.41c-5.23-20.34-13.63-33.55-32.84-51.56-43.48-40.76-84.08-56.63-106.48-63.51A10.24,10.24,0,0,0,595,643"/><path class="cls-10" d="M612.76,745.93c10,23.55,28,77,62.18,81.64,20.28,2.76,37-12.65,39.19-9.14,2.27,3.68-14.41,23.4-37.35,27.65-14.84,2.75-27-2-31.14-3.63-14.95-6-23.25-16.53-29.64-24.83-8.72-11.32-12.61-21.37-16.87-32.66-9.19-24.3-11.44-44.48-12.72-56.65-1.35-12.92-3.08-30.39.05-51.18a184.2,184.2,0,0,1,8-32.27"/><g class="cls-11"><path class="cls-1" d="M586.32,736c3.06,18.86,7.64,37.4,14.85,55.07,4.24,10.6,8.83,21.21,15.84,30.29,4.36,5.69,8.92,11.48,14.33,16.1a57.3,57.3,0,0,0,44.88,13.12c12.43-.88,24.87-3.2,35.3-10.85l.28.29c-9.34,9.1-22.42,12.79-35.08,14.08-17,2.62-35.05-2.25-48-13.66a93.31,93.31,0,0,1-12.86-14.29,104.37,104.37,0,0,1-15.3-28,212.26,212.26,0,0,1-11-36.75A254.5,254.5,0,0,1,585.92,736l.4,0Z"/></g></g></g></svg>