<svg xmlns="http://www.w3.org/2000/svg" viewBox="0 0 1149.98 1149.98"><defs><style>.cls-1{fill:#a8818f;}.cls-2{opacity:0.1;}.cls-3{fill:#fff;}.cls-4{fill:#c030a9;}.cls-5{fill:#282828;}</style></defs><g id="Camada_2" data-name="Camada 2"><g id="Layer_1" data-name="Layer 1"><circle class="cls-1" cx="574.99" cy="574.99" r="574.99"/><g class="cls-2"><path class="cls-3" d="M575,1114a19.52,19.52,0,0,1,0-39c275.71,0,500-224.3,500-500a19.52,19.52,0,0,1,39,0c0,144-56.07,279.35-157.88,381.16S719,1114,575,1114Z"/></g><g class="cls-2"><path class="cls-3" d="M55.47,594.51A19.52,19.52,0,0,1,36,575C36,431,92,295.64,193.83,193.83S431,36,575,36a19.52,19.52,0,1,1,0,39C299.28,75,75,299.28,75,575A19.52,19.52,0,0,1,55.47,594.51Z"/></g><circle class="cls-4" cx="574.99" cy="574.99" r="353.13"/><circle class="cls-5" cx="407.79" cy="568.95" r="40.33" transform="translate(-282.87 454.99) rotate(-45)"/><circle class="cls-5" cx="742.19" cy="568.95" r="40.33" transform="translate(17.94 1160.57) rotate(-76.72)"/><path class="cls-5" d="M631.5,564.86a56.51,56.51,0,0,1-113,0Z"/></g></g></svg>