<svg xmlns="http://www.w3.org/2000/svg" viewBox="0 0 1360.77 1365.6"><defs><style>.cls-1{fill:#303030;}.cls-2{fill:#ff4553;}.cls-3{opacity:0.1;}.cls-4{fill:#fff;}.cls-5{fill:#ed1c24;}.cls-6{fill:#fcdd5b;}.cls-7{fill:#fcf089;}</style></defs><g id="Camada_2" data-name="Camada 2"><g id="Layer_1" data-name="Layer 1"><path class="cls-1" d="M143.43,372a31.15,31.15,0,0,0-8.08,21.83c-4.68.41-8.53,2-11,4.68a11.79,11.79,0,0,0-3,9.79c1,8.52,8.89,10.63,14.11,12a74.21,74.21,0,0,0,11.15,2c6.49,9.3,14.78,18.07,22.17,25.89,3.81,4,7.4,7.83,10.21,11.17a1456.63,1456.63,0,0,0,110,116.05,9.85,9.85,0,0,0,9.75,2.57,11.88,11.88,0,0,0,7.88-8.65,11.64,11.64,0,0,0,.26-4,11.34,11.34,0,0,0-3.53-6.93l-5.63-5.26c-70.25-65.55-114.35-113.56-131.1-142.75,3.93-13.4,2.35-24.42-5.31-37.68a9.68,9.68,0,0,0-7.55-4.76A12.41,12.41,0,0,0,143.43,372Z"/><path class="cls-1" d="M1358.76,772.27a31.2,31.2,0,0,1-19.08,13.34c.78,4.64.19,8.77-1.74,11.87a11.75,11.75,0,0,1-8.7,5.4c-8.51,1.2-12.54-5.91-15.21-10.61a73.23,73.23,0,0,1-4.77-10.27c-10.64-3.93-21.22-9.73-30.66-14.9-4.86-2.67-9.45-5.18-13.39-7.06A1457.58,1457.58,0,0,1,1125.11,683a9.85,9.85,0,0,1-4.94-8.78,11.91,11.91,0,0,1,6.37-9.82,11.58,11.58,0,0,1,3.83-1.26,11.36,11.36,0,0,1,7.59,1.66l6.52,4.12c81.18,51.39,138.78,81.91,171.26,90.74,12-7.19,23-8.44,37.8-4.38a9.65,9.65,0,0,1,6.51,6.1A12.37,12.37,0,0,1,1358.76,772.27Z"/><path class="cls-1" d="M1002.15,1231.35c2.45-23.85-18.51-15.44-22.35-11.62-6.79,6.76-13.77,13.93-22,18.92a39.4,39.4,0,0,1-26.12,5.35c-17.24-2.15-33.33-10.74-46.28-22.07a97.4,97.4,0,0,1-27.22-40.54c-7-19.64-5.32-40.86-1.25-60.93,5.19-25.59,13.5-50.78,22.35-75.31,4.28-11.87-14-19-18.28-7.12-8.94,24.79-16.89,50.11-22.6,75.85-5.28,23.76-6.77,48.2.61,71.66,12,38.22,45.24,68.74,84.49,76.92,13.26,2.77,27.11,1.87,39.33-4.29a70.09,70.09,0,0,0,6.1-3.47,76.64,76.64,0,0,0,2.26,22.26c2.49,9.71,14.34,10.67,18.82,1.93C997.5,1264.2,1000.46,1247.78,1002.15,1231.35Z"/><path class="cls-1" d="M625.94,1015.05a9.56,9.56,0,0,0-3.92-9,11.69,11.69,0,0,0-11.5-.75,10.91,10.91,0,0,0-6.38,9.18,1169.39,1169.39,0,0,0,15.42,315c-7.6-1-18.69.2-18.85.22-3.6.45-15.69,2.59-20.2,11.09-2.09,3.94-2.52,12.13.2,17.56a9.35,9.35,0,0,0,7,5.51,127.31,127.31,0,0,0,20.07,1.67,114.1,114.1,0,0,0,29.82-4c5.64-1.51,8.94-7.2,7.69-13.24A1150.23,1150.23,0,0,1,625.94,1015.05Z"/><circle class="cls-2" cx="741.89" cy="625.58" r="464.03"/><g class="cls-3"><path class="cls-4" d="M741.89,1060.6a15.75,15.75,0,1,0,0-31.49c-222.5,0-403.52-181-403.52-403.52a15.75,15.75,0,0,0-31.5,0c0,116.19,45.25,225.44,127.42,307.6S625.69,1060.6,741.89,1060.6Z"/></g><g class="cls-3"><path class="cls-4" d="M1161.16,641.34a15.75,15.75,0,0,0,15.75-15.75c0-116.2-45.25-225.45-127.41-307.61S858.09,190.56,741.89,190.56a15.75,15.75,0,0,0,0,31.5c222.5,0,403.52,181,403.52,403.53A15.75,15.75,0,0,0,1161.16,641.34Z"/></g><circle class="cls-5" cx="741.89" cy="625.58" r="284.98"/><circle class="cls-1" cx="799.55" cy="583.29" r="32.55"/><circle class="cls-1" cx="529.68" cy="583.29" r="32.55"/><path class="cls-1" d="M619,580a45.6,45.6,0,0,0,91.2,0Z"/><path class="cls-6" d="M2.76,334c7.67-15.39,12.26-32.37,23.77-45.75,42-37.68,88.42-51.21,141.54-26.13,8.9,4.2,15,1.33,21-4.41,27.7-26.53,55.11-53.38,83.11-79.59,8.2-7.68,8.8-14.24,1.41-22.1-3-3.17-6-6.32-8.87-9.55C240.5,119.55,245,97.76,278,80.43c7.22-3.79,13.36-3.25,19.32,1.38,4.79,3.7,8.56,9.06,13.76,11.82,10,5.28,14.79,29.78,28.37,15.6,12.38-12.93-11.07-19.17-16.51-29.65-1.54-3-4.7-5.06-7.06-7.61C289,42.78,293,21.22,328.72,2.38c10.91-5.76,17.6-.2,24.68,7.42C372.31,30.17,391.87,49.92,411,70.14c23.17,24.58,23.11,24.72-2.1,49.09-56.41,54.52-112.46,109.45-169.6,163.2-15.89,14.95-22.09,26.71-14.39,50.45,21.66,66.82-19.59,131.68-88.55,145.68-9.32,1.89-18.78,3.08-28.18,4.58l-15.65-3a161.49,161.49,0,0,1-66.7-39.34q-11.51-20.19-23-40.36C.71,378.33-2.26,356.2,2.76,334Zm168.39,65.5c18.95-30.82,8.83-73.76-21.61-91.71C119.35,290,79,300,60.06,329.91c-20.33,32.11-10.31,74.54,22,93.21C112,440.38,152.68,429.6,171.15,399.54ZM63.2,450.44c38.21,23.09,77.2,21.74,110.8-2.95,6.22-4.57,16.15-9.83,11-17.64-5.95-9-14.05.35-19.88,4.22-30.15,20-60.2,24-92.37,4.27-7.94-4.86-18.78-21.28-27.36-6.93C39.18,441.78,57.73,444.4,63.2,450.44ZM367.27,145.91c2.06-4.91,9.49-9.52,3.6-15.58-4.52-4.67-9.57-.79-13.37,2.93q-40.72,40-81.34,80.06c-3.51,3.46-9.57,6.66-3.71,12.26,5.2,5,9.47.28,13.22-3.22C312.84,197,340,171.53,367.27,145.91Zm37.66-38.23c3.75-3.45,9.56-8,2.54-11.91-10.13-5.58-14.37,6.08-20.86,10.43-3.86,2.59-8.71,9.54-3.61,12.77C394.82,126.46,398,112.42,404.93,107.68Z"/><path class="cls-7" d="M63.2,450.44c-5.47-6-24-8.66-17.81-19,8.58-14.35,19.42,2.07,27.36,6.93,32.17,19.71,62.22,15.73,92.37-4.27,5.83-3.87,13.93-13.24,19.88-4.22,5.15,7.81-4.78,13.07-11,17.64C140.4,472.18,101.41,473.53,63.2,450.44Z"/><path class="cls-7" d="M367.27,145.91C340,171.53,312.84,197,285.67,222.36c-3.75,3.5-8,8.19-13.22,3.22-5.86-5.6.2-8.8,3.71-12.26q40.66-40,81.34-80.06c3.8-3.72,8.85-7.6,13.37-2.93C376.76,136.39,369.33,141,367.27,145.91Z"/><path class="cls-7" d="M404.91,107.68c-7,4.74-10.09,18.78-21.91,11.29-5.1-3.23-.25-10.18,3.61-12.77,6.49-4.35,10.73-16,20.86-10.43C414.49,99.64,408.68,104.23,404.91,107.68Z"/></g></g></svg>