<svg xmlns="http://www.w3.org/2000/svg" viewBox="0 0 1149.98 1149.98"><defs><style>.cls-1{fill:#ff4553;}.cls-2{opacity:0.1;}.cls-3{fill:#fff;}.cls-4{fill:#ed1c24;}.cls-5{fill:#282828;}.cls-6{opacity:0.9;}</style></defs><g id="Camada_2" data-name="Camada 2"><g id="Layer_1" data-name="Layer 1"><circle class="cls-1" cx="574.99" cy="574.99" r="574.99"/><g class="cls-2"><path class="cls-3" d="M575,1114a19.52,19.52,0,0,1,0-39c275.71,0,500-224.3,500-500a19.52,19.52,0,0,1,39,0c0,144-56.07,279.35-157.88,381.16S719,1114,575,1114Z"/></g><g class="cls-2"><path class="cls-3" d="M55.47,594.51A19.52,19.52,0,0,1,36,575C36,431,92,295.64,193.83,193.83S431,36,575,36a19.52,19.52,0,1,1,0,39C299.28,75,75,299.28,75,575A19.52,19.52,0,0,1,55.47,594.51Z"/></g><circle class="cls-4" cx="575.43" cy="575.43" r="456.56"/><circle class="cls-5" cx="325.09" cy="581.01" r="61.46" transform="translate(-315.62 400.05) rotate(-45)"/><circle class="cls-5" cx="834.69" cy="581.01" r="61.46" transform="translate(77.44 1259.88) rotate(-76.72)"/><path class="cls-5" d="M493.78,703A86.11,86.11,0,1,1,666,703Z"/><path class="cls-5" d="M221.8,539a14.61,14.61,0,0,1-21-13.41c.58-25.79,34.79-35.2,69.49-52.06s59.34-36.1,78.48-19.68a15.07,15.07,0,0,1-3.2,25Z"/><path class="cls-5" d="M928,539a14.61,14.61,0,0,0,21-13.41c-.58-25.79-34.79-35.2-69.49-52.06S820.16,437.41,801,453.82a15.07,15.07,0,0,0,3.2,25Z"/><g class="cls-6"><circle class="cls-3" cx="299.45" cy="556.13" r="15.82" transform="translate(-305.54 374.63) rotate(-45)"/></g><g class="cls-6"><circle class="cls-3" cx="341.32" cy="603.36" r="21.92" transform="translate(-326.67 418.07) rotate(-45)"/></g><g class="cls-6"><circle class="cls-3" cx="809.97" cy="553.62" r="15.82" transform="translate(-154.23 734.89) rotate(-45)"/></g><g class="cls-6"><circle class="cls-3" cx="851.85" cy="600.85" r="21.92" transform="translate(-175.37 778.34) rotate(-45)"/></g></g></g></svg>