<svg xmlns="http://www.w3.org/2000/svg" viewBox="0 0 1149.98 1149.98"><defs><style>.cls-1{fill:#ff4553;}.cls-2{opacity:0.1;}.cls-3{fill:#fff;}.cls-4{fill:#ed1c24;}.cls-5{fill:#282828;}.cls-6{opacity:0.9;}</style></defs><g id="Camada_2" data-name="Camada 2"><g id="Layer_1" data-name="Layer 1"><circle class="cls-1" cx="574.99" cy="574.99" r="574.99"/><g class="cls-2"><path class="cls-3" d="M575,1114a19.52,19.52,0,0,1,0-39c275.71,0,500-224.3,500-500a19.52,19.52,0,0,1,39,0c0,144-56.07,279.35-157.88,381.16S719,1114,575,1114Z"/></g><g class="cls-2"><path class="cls-3" d="M55.47,594.51A19.52,19.52,0,0,1,36,575C36,431,92,295.64,193.83,193.83S431,36,575,36a19.52,19.52,0,1,1,0,39C299.28,75,75,299.28,75,575A19.52,19.52,0,0,1,55.47,594.51Z"/></g><circle class="cls-4" cx="574.99" cy="574.99" r="353.13"/><circle class="cls-5" cx="407.79" cy="568.95" r="40.33" transform="translate(-282.87 454.99) rotate(-45)"/><circle class="cls-5" cx="742.19" cy="568.95" r="40.33" transform="translate(17.94 1160.57) rotate(-76.72)"/><path class="cls-5" d="M518.49,649a56.51,56.51,0,0,1,113,0Z"/><path class="cls-5" d="M340,541.38a9.58,9.58,0,0,1-13.78-8.8c.38-16.92,22.83-23.1,45.6-34.16s38.94-23.69,51.5-12.92a9.9,9.9,0,0,1-2.1,16.41Z"/><path class="cls-5" d="M803.42,541.36a9.58,9.58,0,0,0,13.78-8.8c-.38-16.92-22.83-23.09-45.6-34.16s-38.94-23.69-51.5-12.91a9.89,9.89,0,0,0,2.1,16.4Z"/><g class="cls-6"><circle class="cls-3" cx="390.96" cy="552.62" r="10.38"/></g><g class="cls-6"><circle class="cls-3" cx="418.44" cy="583.62" r="14.38" transform="translate(-290.12 466.82) rotate(-45)"/></g><g class="cls-6"><circle class="cls-3" cx="725.98" cy="550.98" r="10.38"/></g><g class="cls-6"><circle class="cls-3" cx="753.46" cy="581.97" r="14.38" transform="translate(-190.83 703.23) rotate(-45)"/></g></g></g></svg>