<svg xmlns="http://www.w3.org/2000/svg" viewBox="0 0 1149.98 1160.98"><defs><style>.cls-1{fill:#ff4553;}.cls-2{opacity:0.1;}.cls-3{fill:#fff;}.cls-4{fill:#ed1c24;}.cls-5,.cls-6{fill:#282828;}.cls-6{font-size:453.99px;font-family:Poppins-Medium, Poppins;font-weight:500;}</style></defs><g id="Camada_2" data-name="Camada 2"><g id="Layer_1" data-name="Layer 1"><circle class="cls-1" cx="574.99" cy="585.99" r="574.99"/><g class="cls-2"><path class="cls-3" d="M575,1125a19.52,19.52,0,0,1,0-39c275.71,0,500-224.3,500-500a19.52,19.52,0,0,1,39,0c0,144-56.07,279.35-157.88,381.16S719,1125,575,1125Z"/></g><g class="cls-2"><path class="cls-3" d="M55.47,605.51A19.52,19.52,0,0,1,36,586C36,442,92,306.64,193.83,204.83S431,47,575,47a19.52,19.52,0,1,1,0,39C299.28,86,75,310.28,75,586A19.52,19.52,0,0,1,55.47,605.51Z"/></g><circle class="cls-4" cx="574.99" cy="585.99" r="353.13"/><circle class="cls-5" cx="407.79" cy="579.95" r="40.33" transform="translate(-290.65 458.21) rotate(-45)"/><circle class="cls-5" cx="742.19" cy="579.95" r="40.33" transform="translate(7.24 1169.04) rotate(-76.72)"/><path class="cls-5" d="M631.5,575.86a56.51,56.51,0,0,1-113,0Z"/><text class="cls-6" transform="translate(834.81 385.21)">?</text></g></g></svg>