<svg xmlns="http://www.w3.org/2000/svg" viewBox="0 0 1082.91 1191.8"><defs><style>.cls-1{fill:#303030;}.cls-2{fill:#ff4553;}.cls-3{opacity:0.1;}.cls-4{fill:#fff;}.cls-5,.cls-6{fill:#ed1c24;}.cls-6{stroke:#474747;stroke-miterlimit:10;stroke-width:19px;}.cls-7{opacity:0.87;}.cls-8{fill:#474747;}.cls-9{opacity:0.6;}</style></defs><g id="Camada_2" data-name="Camada 2"><g id="Layer_1" data-name="Layer 1"><path class="cls-1" d="M1080.9,610.72a31.14,31.14,0,0,1-19.08,13.34c.78,4.64.19,8.77-1.74,11.87a11.78,11.78,0,0,1-8.7,5.4c-8.5,1.19-12.54-5.91-15.2-10.61a73.23,73.23,0,0,1-4.78-10.27c-10.64-3.93-21.22-9.73-30.66-14.9-4.86-2.67-9.44-5.18-13.39-7.06a1458.44,1458.44,0,0,1-140.09-77.07,9.88,9.88,0,0,1-5-8.78,11.92,11.92,0,0,1,6.38-9.82,11.46,11.46,0,0,1,3.82-1.26,11.3,11.3,0,0,1,7.59,1.66l6.52,4.11c81.18,51.4,138.78,81.92,171.26,90.75,12-7.19,23-8.45,37.8-4.39a9.67,9.67,0,0,1,6.51,6.11A12.37,12.37,0,0,1,1080.9,610.72Z"/><path class="cls-1" d="M724.29,1069.8c2.45-23.85-18.51-15.45-22.35-11.62-6.79,6.76-13.77,13.93-22,18.92a39.4,39.4,0,0,1-26.12,5.35c-17.24-2.16-33.33-10.74-46.28-22.07a97.46,97.46,0,0,1-27.22-40.54c-7-19.64-5.32-40.86-1.25-60.93,5.2-25.59,13.51-50.78,22.35-75.31,4.29-11.87-14-19-18.28-7.12-8.94,24.79-16.89,50.11-22.6,75.85-5.27,23.76-6.77,48.2.61,71.66,12,38.22,45.24,68.74,84.49,76.92,13.26,2.77,27.12,1.87,39.34-4.29a69.91,69.91,0,0,0,6.09-3.47,76.65,76.65,0,0,0,2.27,22.26c2.48,9.7,14.33,10.67,18.81,1.93C719.65,1102.64,722.6,1086.23,724.29,1069.8Z"/><path class="cls-1" d="M233.05,841.26a9.58,9.58,0,0,0-3.92-9,11.73,11.73,0,0,0-11.51-.76,11,11,0,0,0-6.38,9.18,1169.85,1169.85,0,0,0,15.43,315c-7.6-1-18.69.2-18.85.21-3.6.46-15.69,2.59-20.2,11.1-2.09,3.94-2.52,12.12.2,17.56a9.37,9.37,0,0,0,7,5.51,127.27,127.27,0,0,0,20.07,1.66,114,114,0,0,0,29.81-4c5.65-1.51,9-7.2,7.7-13.24A1149.9,1149.9,0,0,1,233.05,841.26Z"/><circle class="cls-2" cx="464.03" cy="464.03" r="464.03"/><g class="cls-3"><path class="cls-4" d="M464,899.05a15.75,15.75,0,0,0,0-31.5c-222.5,0-403.52-181-403.52-403.52A15.75,15.75,0,0,0,29,464c0,116.2,45.25,225.44,127.42,307.61S347.83,899.05,464,899.05Z"/></g><g class="cls-3"><path class="cls-4" d="M883.3,479.78A15.75,15.75,0,0,0,899.05,464c0-116.19-45.25-225.44-127.41-307.6S580.23,29,464,29a15.75,15.75,0,0,0,0,31.5c222.51,0,403.52,181,403.52,403.52A15.75,15.75,0,0,0,883.3,479.78Z"/></g><circle class="cls-5" cx="464.03" cy="464.03" r="284.98"/><circle class="cls-1" cx="521.7" cy="421.74" r="32.55"/><circle class="cls-1" cx="251.82" cy="421.74" r="32.55"/><path class="cls-1" d="M341.16,418.43a45.6,45.6,0,0,0,91.2,0Z"/><circle class="cls-6" cx="308.46" cy="418.43" r="171.32"/><ellipse class="cls-1" cx="210.67" cy="388.05" rx="44.42" ry="44.5" transform="translate(-212.58 262.25) rotate(-44.95)"/><g class="cls-7"><ellipse class="cls-4" cx="191.65" cy="373.09" rx="12.59" ry="12.62" transform="translate(-207.57 244.44) rotate(-44.95)"/></g><g class="cls-7"><ellipse class="cls-4" cx="219.27" cy="410.64" rx="7.79" ry="7.8" transform="translate(-226.02 274.93) rotate(-44.95)"/></g><path class="cls-1" d="M332.71,383.54a62.29,62.29,0,0,0,124.58,0Z"/><path class="cls-8" d="M286.18,589.76c-1.76,105.61,12.36,211.91,19.9,312.7l30-4.31c-15.34-109.37-14.46-195.31-19.43-307.85"/><path class="cls-8" d="M279.84,629.27h39.68a8.59,8.59,0,0,1,8.57,8.3c3,88.41,7,154.25,13.08,245a22.09,22.09,0,0,1-20.8,23.52l-3.65.21a18.44,18.44,0,0,1-19.38-16.59c-8.22-83-15.94-170.68-17.5-260.4"/><path class="cls-1" d="M43.24,659.89c96,2.72,166.92-2.4,199.34-11.39,6.63-12.3,15.49-19,30.26-23.08a9.68,9.68,0,0,1,8.72,1.92,12.39,12.39,0,0,1,4.47,10,31.19,31.19,0,0,1-9.59,21.21c3,3.59,4.64,7.45,4.56,11.1a11.75,11.75,0,0,1-4.72,9.08c-6.7,5.37-13.8,1.33-18.49-1.35a73.15,73.15,0,0,1-9.35-6.39c-11.16,2.05-23.21,2.47-34,2.85-5.54.18-10.77.36-15.12.76-50.64,4.61-104.42,3.63-159.81,5.3-23.86.72-26.49-12.66-26.2-16.68S17.78,642.11,36,643.5"/><g class="cls-9"><path class="cls-4" d="M222.89,296.45c-2.91-2-7-.48-9.79,2.88-40.86,48.92-40.64,107.72-38.6,128.61,2.45,24.9,12.59,73.51,61.9,117.38,2.65,2.35,7.55,4.4,10,.79s.24-5.35-2.32-7.79c-78-74.29-65-176.87-20.5-231.69C226.39,303.22,225.79,298.47,222.89,296.45Z"/></g></g></g></svg>