<svg xmlns="http://www.w3.org/2000/svg" viewBox="0 0 1662.02 1651.84"><defs><style>.cls-1{fill:#303030;}.cls-2{fill:#ff4553;}.cls-3{opacity:0.1;}.cls-4{fill:#fff;}.cls-5{fill:#ed1c24;}</style></defs><g id="Camada_2" data-name="Camada 2"><g id="Layer_1" data-name="Layer 1"><path class="cls-1" d="M14.55,216.14c12.46-2.16,23.82-.06,34.16,6.52,4.15-5.67,9.19-9.35,14.52-10.51a17.56,17.56,0,0,1,14.85,3.68c10.15,7.86,6.75,19.59,4.5,27.34a110,110,0,0,1-6,15.82c6.89,15.49,11.71,32.86,16,48.36,2.21,8,4.3,15.51,6.4,21.68,24.39,72,45.77,149.45,63.54,230.32a14.76,14.76,0,0,1-4.23,14.45,17.78,17.78,0,0,1-17.16,3.4,17.1,17.1,0,0,1-5.34-2.78,16.92,16.92,0,0,1-6.14-9.86l-2.39-11.26c-29.61-140.48-57-234-81.39-277.93-20.18-5.32-33.06-15.85-44.1-35.89a14.42,14.42,0,0,1-.25-13.33A18.46,18.46,0,0,1,14.55,216.14Z"/><path class="cls-1" d="M1067.4,1571.86c3.66-35.64-27.66-23.09-33.4-17.38-10.14,10.11-20.57,20.83-32.91,28.28-12.13,7.33-25,9.74-39,8-25.76-3.22-49.8-16-69.15-33a145.41,145.41,0,0,1-40.67-60.57c-10.42-29.35-8-61.06-1.87-91,7.76-38.24,20.18-75.88,33.4-112.53,6.4-17.74-20.91-28.4-27.32-10.64-13.36,37-25.24,74.88-33.77,113.34-7.88,35.5-10.12,72,.91,107.08,18,57.1,67.6,102.71,126.24,114.93,19.83,4.14,40.52,2.79,58.78-6.41q4.71-2.39,9.11-5.19a114.35,114.35,0,0,0,3.38,33.26c3.71,14.5,21.43,15.94,28.11,2.89C1060.46,1620.93,1064.88,1596.4,1067.4,1571.86Z"/><path class="cls-1" d="M655.76,1511.63c3.66-35.64-27.66-23.08-33.4-17.37-10.14,10.1-20.57,20.83-32.91,28.28-12.13,7.32-25,9.73-39,8-25.76-3.22-49.8-16-69.15-33A145.6,145.6,0,0,1,440.6,1437c-10.42-29.34-8-61-1.87-91,7.76-38.23,20.18-75.87,33.4-112.52,6.4-17.74-20.91-28.4-27.31-10.64-13.36,37-25.25,74.87-33.78,113.34-7.88,35.5-10.12,72,.91,107.07,18,57.11,67.6,102.71,126.25,114.94,19.82,4.13,40.52,2.79,58.77-6.42,3.14-1.58,6.18-3.32,9.12-5.18a114.07,114.07,0,0,0,3.38,33.26c3.71,14.5,21.42,15.94,28.11,2.89C648.82,1560.71,653.24,1536.17,655.76,1511.63Z"/><circle class="cls-2" cx="792.59" cy="690.76" r="690.76"/><g class="cls-3"><path class="cls-4" d="M792.59,1338.33a23.45,23.45,0,0,0,0-46.89c-331.22,0-600.68-269.46-600.68-600.68a23.45,23.45,0,0,0-46.89,0c0,173,67.35,335.6,189.67,457.91S619.62,1338.33,792.59,1338.33Z"/></g><g class="cls-3"><path class="cls-4" d="M1416.72,714.21a23.44,23.44,0,0,0,23.44-23.45c0-173-67.36-335.59-189.67-457.9S965.56,43.19,792.59,43.19a23.45,23.45,0,1,0,0,46.89c331.22,0,600.68,269.46,600.68,600.68A23.45,23.45,0,0,0,1416.72,714.21Z"/></g><circle class="cls-5" cx="792.59" cy="690.76" r="424.23"/><circle class="cls-1" cx="925.25" cy="578.07" r="48.45" transform="translate(-161.92 669.21) rotate(-36.79)"/><circle class="cls-1" cx="527.63" cy="520.69" r="48.45" transform="translate(-213.64 525.6) rotate(-45)"/><path class="cls-1" d="M660,534.81A67.88,67.88,0,1,0,794.33,554.2Z"/><path class="cls-1" d="M1652.35,482.94c-11.27-5.75-22.74-7.1-34.57-3.87-2.29-6.64-6-11.64-10.77-14.33a17.53,17.53,0,0,0-15.27-.86c-12,4.51-12.23,16.71-12.37,24.78a110.94,110.94,0,0,0,1.07,16.89c-11.15,12.77-20.89,27.94-29.57,41.48-4.47,7-8.69,13.55-12.52,18.83-44.56,61.54-87.87,129.26-128.74,201.27-2.82,5-2.9,10.48-.21,15a17.76,17.76,0,0,0,15.38,8.33,17.39,17.39,0,0,0,5.92-1.08,16.92,16.92,0,0,0,8.78-7.61l5.61-10.05c69.78-125.47,123.55-206.7,159.85-241.5,20.85.88,36.26-5.38,52.73-21.26a14.43,14.43,0,0,0,4.18-12.66A18.47,18.47,0,0,0,1652.35,482.94Z"/><circle class="cls-4" cx="904.77" cy="564.9" r="15.78"/><circle class="cls-4" cx="505.63" cy="504.95" r="15.78" transform="translate(-179.18 709.08) rotate(-61.56)"/></g></g></svg>