<svg xmlns="http://www.w3.org/2000/svg" viewBox="0 0 1149.98 1149.98"><defs><style>.cls-1{fill:#ff4553;}.cls-2{opacity:0.1;}.cls-3{fill:#fff;}.cls-4{fill:#ed1c24;}.cls-5{fill:#282828;}</style></defs><g id="Camada_2" data-name="Camada 2"><g id="Layer_1" data-name="Layer 1"><circle class="cls-1" cx="574.99" cy="574.99" r="574.99"/><g class="cls-2"><path class="cls-3" d="M575,1114a19.52,19.52,0,0,1,0-39c275.71,0,500-224.3,500-500a19.52,19.52,0,0,1,39,0c0,144-56.07,279.35-157.88,381.16S719,1114,575,1114Z"/></g><g class="cls-2"><path class="cls-3" d="M55.47,594.51A19.52,19.52,0,0,1,36,575C36,431,92,295.64,193.83,193.83S431,36,575,36a19.52,19.52,0,1,1,0,39C299.28,75,75,299.28,75,575A19.52,19.52,0,0,1,55.47,594.51Z"/></g><circle class="cls-4" cx="574.99" cy="574.99" r="353.13"/><path class="cls-5" d="M518.49,649a56.51,56.51,0,0,1,113,0Z"/><path class="cls-5" d="M340,497.38a9.58,9.58,0,0,1-13.78-8.8c.38-16.92,22.83-23.1,45.6-34.16s38.94-23.69,51.5-12.92a9.9,9.9,0,0,1-2.1,16.41Z"/><path class="cls-5" d="M803.42,497.36a9.58,9.58,0,0,0,13.78-8.8c-.38-16.92-22.83-23.09-45.6-34.16s-38.94-23.69-51.5-12.91a9.89,9.89,0,0,0,2.1,16.4Z"/><path class="cls-5" d="M376.22,602.54c-4.72,4.74-10.67,5-10.93.39-.61-10.82,16.12-24.36,32.83-41.12s28.33-31.66,38.43-30.28c4.35.6,4,6.52-.73,11.23Z"/><path class="cls-5" d="M366.68,543c-4.74-4.72-5-10.67-.39-10.93,10.82-.6,24.36,16.12,41.12,32.83s31.66,28.33,30.27,38.44c-.59,4.35-6.51,4-11.23-.73Z"/><path class="cls-5" d="M725.44,603.07c-4.72,4.73-10.67,4.95-10.93.38-.6-10.82,16.12-24.36,32.84-41.12s28.32-31.65,38.43-30.27c4.35.59,4,6.52-.73,11.23Z"/><path class="cls-5" d="M715.9,543.52c-4.73-4.73-4.95-10.68-.38-10.93,10.81-.61,24.36,16.12,41.12,32.83s31.65,28.32,30.27,38.43c-.59,4.35-6.52,4-11.23-.73Z"/></g></g></svg>