<svg xmlns="http://www.w3.org/2000/svg" viewBox="0 0 855.12 1016.27"><defs><style>.cls-1,.cls-7{fill:#303030;}.cls-2{fill:#ff4553;}.cls-10,.cls-3,.cls-7{opacity:0.1;}.cls-10,.cls-4{fill:#fff;}.cls-5{fill:#ed1c24;}.cls-6{fill:#ed534c;}.cls-8{opacity:0.61;}.cls-9{fill:#f4f4f4;}</style></defs><g id="Camada_2" data-name="Camada 2"><g id="Layer_1" data-name="Layer 1"><path class="cls-1" d="M683.13,903c2.07-20.13-15.63-13-18.87-9.81-5.73,5.7-11.62,11.76-18.59,16a33.22,33.22,0,0,1-22,4.51c-14.55-1.81-28.13-9.06-39.06-18.62a82.32,82.32,0,0,1-23-34.22c-5.89-16.58-4.49-34.49-1.06-51.43,4.39-21.6,11.4-42.86,18.87-63.56,3.61-10-11.81-16-15.43-6a522.91,522.91,0,0,0-19.08,64c-4.45,20.06-5.72,40.68.52,60.49,10.15,32.25,38.18,58,71.31,64.92,11.19,2.33,22.89,1.58,33.2-3.62q2.66-1.35,5.15-2.93A64.29,64.29,0,0,0,657,941.45c2.09,8.2,12.1,9,15.88,1.64C679.21,930.68,681.7,916.82,683.13,903Z"/><path class="cls-1" d="M365.59,720.39a8.1,8.1,0,0,0-3.3-7.57,9.92,9.92,0,0,0-9.72-.64,9.22,9.22,0,0,0-5.38,7.75,986.77,986.77,0,0,0,13,265.92c-6.41-.82-15.78.16-15.92.18-3,.38-13.24,2.18-17,9.36-1.76,3.33-2.13,10.23.17,14.83a7.93,7.93,0,0,0,5.88,4.65,108.25,108.25,0,0,0,16.94,1.4,96.14,96.14,0,0,0,25.16-3.41,9.3,9.3,0,0,0,6.5-11.17A971,971,0,0,1,365.59,720.39Z"/><circle class="cls-2" cx="463.46" cy="391.66" r="391.66"/><g class="cls-3"><path class="cls-4" d="M463.46,758.84a13.3,13.3,0,0,0,0-26.59c-187.8,0-340.59-152.78-340.59-340.58a13.3,13.3,0,1,0-26.59,0A367.18,367.18,0,0,0,463.46,758.84Z"/></g><g class="cls-3"><path class="cls-4" d="M817.34,405a13.3,13.3,0,0,0,13.3-13.29A367.18,367.18,0,0,0,463.46,24.49a13.29,13.29,0,1,0,0,26.58c187.8,0,340.59,152.79,340.59,340.6A13.29,13.29,0,0,0,817.34,405Z"/></g><circle class="cls-5" cx="463.46" cy="391.66" r="240.54"/><circle class="cls-1" cx="629.38" cy="345.1" r="27.47" transform="translate(-86.3 290.14) rotate(-24.35)"/><circle class="cls-1" cx="416.24" cy="264.75" r="27.47" transform="translate(39.57 583.3) rotate(-72.68)"/><path class="cls-1" d="M487.78,288.74a38.49,38.49,0,1,0,72,27.15Z"/><path class="cls-6" d="M251,904.84c6.17-2.29,14.43-5.53,24-9.81A417.9,417.9,0,0,0,340.43,858c38.94-27.23,64.89-57.26,83.95-79.59,17.95-21,47.52-56.14,73.05-109,11.86-24.56,22.28-46.59,27.26-78.5,3.53-22.59,8.24-52.78-5.45-87.23a135.06,135.06,0,0,0-118.84-85c-43.84-2.16-75.09,18.82-92.68,30.53a193.93,193.93,0,0,0-53.42,53.42,195.13,195.13,0,0,0-32.71-44.7c-11.09-11.33-21.29-21.75-38.16-29.44-26.45-12.05-51.11-9.09-62.15-7.63-28.06,3.72-47.14,15.93-57.78,22.9s-31.09,20.7-45.79,46.88c-3,5.26-9.81,18.37-14.18,40.34-10.15,51,3.89,95.28,13.09,123.2,13.6,41.31,31.66,69.76,43.61,88.32a438.51,438.51,0,0,0,60,74.14A434.25,434.25,0,0,0,251,904.84Z"/><path class="cls-7" d="M476.47,446.72c27.61,20,38.8,47.3,42.52,56.7,13.4,33.87,9.1,63.83,5.45,87.22-5,31.92-15.41,54-27.26,78.5-25.53,52.89-55.1,88-73.05,109-19.06,22.33-45,52.36-83.95,79.59a416.12,416.12,0,0,1-65.42,37.07c-9.55,4.28-17.81,7.52-24,9.82,35.08-24.62,113-86.4,161.22-197.09,23.06-53,82.65-165.7,37-229-27.05-37.52-78.38-41-76-50C375.5,419.11,433.8,415.75,476.47,446.72Z"/><g class="cls-8"><path class="cls-4" d="M423,779.47c24.3-31,46.27-63.94,63.26-99.51,11.71-24.75,23.34-50.24,28.48-77.19,6.64-37.1,9-71.47-9.45-105.74-22.94-44.36-72.43-72-122.22-67.9-29.89,2.2-56.8,17.37-80.91,34.71a192.72,192.72,0,0,0-42.74,44.22l-7.12,10.17-5.51-10.82a189.87,189.87,0,0,0-32.62-45.72c-6.45-6.93-12.93-13.6-20.49-19.13-30.91-22.87-73-21.56-108-9.45A144.44,144.44,0,0,0,59.27,445l-.54-.84a147.35,147.35,0,0,1,26.06-13.22c41.59-16.21,89.76-16.31,123.9,15.67,18,16.45,33.9,35.34,45.29,57l-1.31-.07c22.06-33.15,54.6-58.77,91-74.61A129.7,129.7,0,0,1,421.88,422c52.36,11,95.58,55.44,104.38,108.34,3.51,19.65,1.81,39.78-1.4,59.34-3.6,26.32-13.11,51.36-24.81,75.07a471.9,471.9,0,0,1-28.59,52.1c-14.14,22.34-30.42,43.25-47.69,63.24l-.76-.65Z"/></g><path class="cls-1" d="M517.23,574.69a26.25,26.25,0,0,1,4.95-19c-3-2.55-4.93-5.53-5.39-8.58a10,10,0,0,1,2.63-8.23c4.81-5.42,11.29-3.07,15.58-1.51a61,61,0,0,1,8.69,4c9-3.3,19-5.37,27.86-7.22,4.57-1,8.9-1.84,12.46-2.8A1229.61,1229.61,0,0,1,716.19,504.1a8.34,8.34,0,0,1,8,2.93,10.06,10.06,0,0,1,1.28,9.8,9.78,9.78,0,0,1-1.77,2.9,9.52,9.52,0,0,1-5.78,3.09l-6.44.93c-80.29,11.45-134,23.39-159.69,35.5-3.75,11.18-10.17,18-21.88,23.52a8.15,8.15,0,0,1-7.52-.35A10.43,10.43,0,0,1,517.23,574.69Z"/><path class="cls-1" d="M15.12,714.23c1.2,8.27,6.58,15.69,12.41,22.46,6.52,7.57,15.14,15.3,26.3,15.72a15.25,15.25,0,0,0,7.82-1.52c3.1-1.69,4.75-4.71,5.87-7.65a37.8,37.8,0,0,0-2.06-31.14c-4.5-8.49-17.29-22.63-29.34-24.05C20.47,686.22,13.65,704.1,15.12,714.23Z"/><circle class="cls-9" cx="618.59" cy="332.37" r="8.44" transform="translate(191.42 889.74) rotate(-80.78)"/><circle class="cls-9" cx="404.29" cy="256.31" r="8.44" transform="translate(-62.83 360.95) rotate(-45)"/><path class="cls-10" d="M465.7,641c1.4,14.87,22.34,16.7,26.36,2.32a167.74,167.74,0,0,0,4.34-19.82c3.29-21.08,7.69-49.25-5.09-81.39A126,126,0,0,0,380.42,462.7c-40.9-2-70.07,17.56-86.48,28.49a180.73,180.73,0,0,0-49.64,49.54.23.23,0,0,1-.39,0,181.58,181.58,0,0,0-30.34-41.38C203.22,488.75,193.7,479,178,471.86c-24.68-11.24-47.69-8.49-58-7.12A115.1,115.1,0,0,0,92.25,472C85.66,474.63,87.91,484.42,95,484c15-1,35.16-8.8,55.94-2.9,49.78,14.12,74.94,54.65,84.77,75.07a7.06,7.06,0,0,0,12,1.15c11.14-14.82,31.33-36.21,62.87-48.49,39.2-15.27,98.91-16.32,131.57,16.79,31.14,31.57,26.57,79.11,23.33,112.91Z"/></g></g></svg>