<svg xmlns="http://www.w3.org/2000/svg" viewBox="0 0 500 500" width="500" height="500" preserveAspectRatio="xMidYMid meet" style="width: 100%; height: 100%; transform: translate3d(0px, 0px, 0px);"><defs><clipPath id="__lottie_element_2"><rect width="500" height="500" x="0" y="0"></rect></clipPath></defs><g clip-path="url(#__lottie_element_2)"><g id="Camada_2" transform="matrix(0.20000000298023224,0,0,0.20000000298023224,94.49955749511719,74.16246032714844)" opacity="1" style="display: block;"><g id="Layer_1" opacity="1" transform="matrix(1,0,0,1,0,0)"><g opacity="1" transform="matrix(1,0,0,1,0,0)"><g opacity="1" transform="matrix(1,0,0,1,0,0)"><path fill="rgb(47,47,47)" fill-opacity="1" d=" M1540,782.1400146484375 C1535.4599609375,782.969970703125 1530.9100341796875,783.5499877929688 1526.3499755859375,784.02001953125 C1528.35205078125,780.739990234375 1529.7982177734375,777.1516723632812 1530.6300048828125,773.4000244140625 C1534.386474609375,757.2554321289062 1524.845947265625,740.9957275390625 1508.9200439453125,736.4000244140625 C1494.0699462890625,732.010009765625 1487.719970703125,755.1799926757812 1502.530029296875,759.5599975585938 C1508.18994140625,761.22998046875 1508.3800048828125,767.3200073242188 1505.72998046875,771.77001953125 C1501.72998046875,778.5499877929688 1492.2900390625,783.77001953125 1484.43994140625,780.4199829101562 C1479.1199951171875,778.1699829101562 1476.5699462890625,772.510009765625 1473.52001953125,767.989990234375 C1467.52001953125,759.1500244140625 1476.719970703125,757.989990234375 1483.97998046875,756.4000244140625 C1499.06005859375,753.0700073242188 1492.6800537109375,729.9099731445312 1477.5899658203125,733.25 C1462.25,736.6400146484375 1446.5899658203125,745.25 1447.0400390625,763.1599731445312 C1447.239990234375,771.3200073242188 1450.969970703125,778.280029296875 1456.0400390625,784.52001953125 C1385.3399658203125,782.6500244140625 1316.8599853515625,757.52001953125 1262.1099853515625,711.5999755859375 C1250.3399658203125,701.739990234375 1233.27001953125,718.5999755859375 1245.1099853515625,728.5999755859375 C1312.760009765625,785.3099975585938 1399.4200439453125,814.1900024414062 1487.6300048828125,807.8599853515625 C1488.4200439453125,807.7999877929688 1529.199951171875,808.4500122070312 1546.4000244140625,805.3099975585938 C1561.5400390625,802.530029296875 1555.1099853515625,779.3800048828125 1540,782.1400146484375 C1540,782.1400146484375 1540,782.1400146484375 1540,782.1400146484375z"></path></g></g><g opacity="1" transform="matrix(1,0,0,1,0,0)"><g opacity="1" transform="matrix(1,0,0,1,0,0)"><path fill="rgb(47,47,47)" fill-opacity="1" d=" M15.0600004196167,782.1400146484375 C19.600000381469727,782.969970703125 24.149999618530273,783.5499877929688 28.709999084472656,784.02001953125 C26.70790672302246,780.739990234375 25.261747360229492,777.1516723632812 24.43000030517578,773.4000244140625 C20.673524856567383,757.2554321289062 30.21400260925293,740.9957275390625 46.13999938964844,736.4000244140625 C61,732 67.33999633789062,755.1799926757812 52.52000045776367,759.5599975585938 C46.869998931884766,761.22998046875 46.68000030517578,767.3200073242188 49.33000183105469,771.77001953125 C53.33000183105469,778.5499877929688 62.77000045776367,783.77001953125 70.62000274658203,780.4199829101562 C75.94000244140625,778.1699829101562 78.48999786376953,772.510009765625 81.54000091552734,767.989990234375 C87.54000091552734,759.1500244140625 78.33999633789062,757.989990234375 71.08000183105469,756.4000244140625 C56,753.0700073242188 62.380001068115234,729.9099731445312 77.45999908447266,733.25 C92.80000305175781,736.6400146484375 108.45999908447266,745.25 108.0199966430664,763.1599731445312 C107.81999969482422,771.3200073242188 104.08000183105469,778.280029296875 99.0199966430664,784.52001953125 C169.72000122070312,782.6500244140625 238.19000244140625,757.52001953125 292.94000244140625,711.5999755859375 C304.7099914550781,701.739990234375 321.7900085449219,718.5999755859375 309.94000244140625,728.5999755859375 C242.2899932861328,785.3099975585938 155.6300048828125,814.1900024414062 67.41999816894531,807.8599853515625 C66.62999725341797,807.7999877929688 25.850000381469727,808.4500122070312 8.649999618530273,805.3099975585938 C-6.510000228881836,802.530029296875 -0.07999999821186066,779.3800048828125 15.0600004196167,782.1400146484375 C15.0600004196167,782.1400146484375 15.0600004196167,782.1400146484375 15.0600004196167,782.1400146484375z"></path></g></g><g opacity="1" transform="matrix(1,0,0,1,0,0)"><g opacity="1" transform="matrix(1,0,0,1,0,0)"><path fill="rgb(47,47,47)" fill-opacity="1" d=" M750.6799926757812,1319.2900390625 C749.2999877929688,1316.6199951171875 744.010009765625,1310.5999755859375 735.9099731445312,1310.9000244140625 C731.2999877929688,1311.0699462890625 705.6300048828125,1310.1400146484375 694.97998046875,1309.6500244140625 C646.1900024414062,1307.4000244140625 594.7999877929688,1301.9200439453125 553.97998046875,1272.5699462890625 C519.3300170898438,1247.6600341796875 496.20001220703125,1201.1099853515625 515.5,1159.4599609375 C535.5599975585938,1116.1600341796875 601.8200073242188,1101.06005859375 643.989990234375,1092.199951171875 C659.1099853515625,1089.02001953125 652.7100219726562,1065.8599853515625 637.6099853515625,1069.0400390625 C591.280029296875,1078.780029296875 527.9400024414062,1095.6199951171875 500.17999267578125,1137.75 C475.17999267578125,1175.6400146484375 482.489990234375,1226.969970703125 508.94000244140625,1261.8900146484375 C539.9400024414062,1302.8399658203125 590.239990234375,1321.800048828125 639.5499877929688,1328.8900146484375 C654.2100219726562,1330.989990234375 668.9500122070312,1332.27001953125 683.739990234375,1333.1300048828125 C689.739990234375,1333.47998046875 698.97998046875,1333.5899658203125 704.8499755859375,1334.9100341796875 C712.97998046875,1336.72998046875 711.2999877929688,1340.1199951171875 711.5800170898438,1347.4000244140625 C712.280029296875,1365.4000244140625 716.4099731445312,1384.530029296875 734.3599853515625,1392.5899658203125 C741.75,1395.9000244140625 749.219970703125,1393.280029296875 752,1385.4100341796875 C759.7899780273438,1363.31005859375 761.47998046875,1340.06005859375 750.6799926757812,1319.2900390625 C750.6799926757812,1319.2900390625 750.6799926757812,1319.2900390625 750.6799926757812,1319.2900390625z"></path></g></g><g opacity="1" transform="matrix(1,0,0,1,0,0)"><g opacity="1" transform="matrix(1,0,0,1,0,0)"><path fill="rgb(47,47,47)" fill-opacity="1" d=" M804.3499755859375,1319.2900390625 C805.72998046875,1316.6199951171875 811.02001953125,1310.5999755859375 819.1199951171875,1310.9000244140625 C823.72998046875,1311.0699462890625 849.4000244140625,1310.1400146484375 860.0499877929688,1309.6500244140625 C908.8400268554688,1307.4000244140625 960.219970703125,1301.9200439453125 1001.0499877929688,1272.5699462890625 C1035.699951171875,1247.6600341796875 1058.8299560546875,1201.1099853515625 1039.530029296875,1159.4599609375 C1019.469970703125,1116.1600341796875 953.2100219726562,1101.06005859375 911.0399780273438,1092.199951171875 C895.9199829101562,1089.02001953125 902.3200073242188,1065.8599853515625 917.4199829101562,1069.0400390625 C963.75,1078.780029296875 1027.0799560546875,1095.6199951171875 1054.8499755859375,1137.75 C1079.8499755859375,1175.6400146484375 1072.5400390625,1226.969970703125 1046.0899658203125,1261.8900146484375 C1015.0900268554688,1302.8399658203125 964.7899780273438,1321.800048828125 915.47998046875,1328.8900146484375 C900.8099975585938,1330.989990234375 886.0800170898438,1332.27001953125 871.2899780273438,1333.1300048828125 C865.2899780273438,1333.47998046875 856.0499877929688,1333.5899658203125 850.1799926757812,1334.9100341796875 C842.0499877929688,1336.72998046875 843.72998046875,1340.1199951171875 843.4500122070312,1347.4000244140625 C842.75,1365.4000244140625 838.6199951171875,1384.530029296875 820.6699829101562,1392.5899658203125 C813.280029296875,1395.9000244140625 805.8099975585938,1393.280029296875 803.030029296875,1385.4100341796875 C795.239990234375,1363.31005859375 793.5499877929688,1340.06005859375 804.3499755859375,1319.2900390625 C804.3499755859375,1319.2900390625 804.3499755859375,1319.2900390625 804.3499755859375,1319.2900390625z"></path></g></g><g opacity="1" transform="matrix(1,0,0,1,0,0)"><g opacity="1" transform="matrix(1,0,0,1,0,0)"><path fill="rgb(47,47,47)" fill-opacity="1" d=" M1346,68.13999938964844 C1346,68.13999938964844 1295.219970703125,111.31999969482422 1295.219970703125,111.31999969482422 C1284.4200439453125,120.5 1298.6700439453125,137.32000732421875 1309.489990234375,128.08999633789062 C1309.489990234375,128.08999633789062 1360.260009765625,84.91999816894531 1360.260009765625,84.91999816894531 C1371.0799560546875,75.73999786376953 1356.8299560546875,58.939998626708984 1346,68.13999938964844 C1346,68.13999938964844 1346,68.13999938964844 1346,68.13999938964844z"></path></g></g><g opacity="1" transform="matrix(1,0,0,1,0,0)"><g opacity="1" transform="matrix(1,0,0,1,0,0)"><path fill="rgb(47,47,47)" fill-opacity="1" d=" M1399.75,156.19000244140625 C1399.75,156.19000244140625 1334.5899658203125,170.24000549316406 1334.5899658203125,170.24000549316406 C1320.739990234375,173.24000549316406 1325.3499755859375,194.75999450683594 1339.22998046875,191.77000427246094 C1339.22998046875,191.77000427246094 1404.3900146484375,177.72000122070312 1404.3900146484375,177.72000122070312 C1418.239990234375,174.72999572753906 1413.6199951171875,153.1999969482422 1399.75,156.19000244140625 C1399.75,156.19000244140625 1399.75,156.19000244140625 1399.75,156.19000244140625z"></path></g></g><g opacity="1" transform="matrix(1,0,0,1,0,0)"><g opacity="1" transform="matrix(1,0,0,1,0,0)"><path fill="rgb(47,47,47)" fill-opacity="1" d=" M1230.199951171875,66.75 C1224.27001953125,79.62999725341797 1244.27001953125,88.86000061035156 1250.199951171875,75.95999908447266 C1250.199951171875,75.95999908447266 1278.0699462890625,15.420000076293945 1278.0699462890625,15.420000076293945 C1284,2.5399999618530273 1264,-6.690000057220459 1258.0699462890625,6.210000038146973 C1258.0699462890625,6.210000038146973 1230.199951171875,66.75 1230.199951171875,66.75z"></path></g></g><g opacity="1" transform="matrix(1,0,0,1,0,0)"><g opacity="1" transform="matrix(1,0,0,1,0,0)"><path fill="rgb(47,47,47)" fill-opacity="1" d=" M209,68.13999938964844 C209,68.13999938964844 259.7799987792969,111.31999969482422 259.7799987792969,111.31999969482422 C270.5799865722656,120.5 256.3299865722656,137.32000732421875 245.50999450683594,128.08999633789062 C245.50999450683594,128.08999633789062 194.74000549316406,84.91999816894531 194.74000549316406,84.91999816894531 C184,75.73999786376953 198.1999969482422,58.939998626708984 209,68.13999938964844 C209,68.13999938964844 209,68.13999938964844 209,68.13999938964844z"></path></g></g><g opacity="1" transform="matrix(1,0,0,1,0,0)"><g opacity="1" transform="matrix(1,0,0,1,0,0)"><path fill="rgb(47,47,47)" fill-opacity="1" d=" M155.27999877929688,156.19000244140625 C155.27999877929688,156.19000244140625 220.44000244140625,170.24000549316406 220.44000244140625,170.24000549316406 C234.2899932861328,173.24000549316406 229.67999267578125,194.75999450683594 215.8000030517578,191.77000427246094 C215.8000030517578,191.77000427246094 150.63999938964844,177.72000122070312 150.63999938964844,177.72000122070312 C136.7899932861328,174.72999572753906 141.41000366210938,153.1999969482422 155.27999877929688,156.19000244140625 C155.27999877929688,156.19000244140625 155.27999877929688,156.19000244140625 155.27999877929688,156.19000244140625z"></path></g></g><g opacity="1" transform="matrix(1,0,0,1,0,0)"><g opacity="1" transform="matrix(1,0,0,1,0,0)"><path fill="rgb(47,47,47)" fill-opacity="1" d=" M297,6.210000038146973 C297,6.210000038146973 324.8699951171875,66.75 324.8699951171875,66.75 C330.7900085449219,79.62999725341797 310.79998779296875,88.86000061035156 304.8699951171875,75.95999908447266 C304.8699951171875,75.95999908447266 277,15.420000076293945 277,15.420000076293945 C271,2.5399999618530273 291,-6.690000057220459 297,6.210000038146973 C297,6.210000038146973 297,6.210000038146973 297,6.210000038146973z"></path></g></g><g opacity="1" transform="matrix(1,0,0,1,0,0)"><g opacity="1" transform="matrix(1,0,0,1,0,0)"><path fill="rgb(255,69,83)" fill-opacity="1" d=" M777.510009765625,78.44000244140625 C1080.4810791015625,78.44000244140625 1326.469970703125,324.4289855957031 1326.469970703125,627.4000244140625 C1326.469970703125,930.3710327148438 1080.4810791015625,1176.360107421875 777.510009765625,1176.360107421875 C474.5389709472656,1176.360107421875 228.54998779296875,930.3710327148438 228.54998779296875,627.4000244140625 C228.54998779296875,324.4289855957031 474.5389709472656,78.44000244140625 777.510009765625,78.44000244140625z"></path></g></g><g opacity="1" transform="matrix(1,0,0,1,0,0)"><g opacity="1" transform="matrix(1,0,0,1,0,0)"><path fill="rgb(255,255,255)" fill-opacity="1" d=" M777.510009765625,1142 C784.1658325195312,1142 790.3161010742188,1138.4490966796875 793.64404296875,1132.68505859375 C796.9719848632812,1126.9208984375 796.9719848632812,1119.819091796875 793.64404296875,1114.0550537109375 C790.3161010742188,1108.2908935546875 784.1658325195312,1104.739990234375 777.510009765625,1104.739990234375 C514.2899780273438,1104.739990234375 300.1400146484375,890.5900268554688 300.1400146484375,627.3599853515625 C299.90545654296875,617.236328125 291.6313781738281,609.1517333984375 281.5050048828125,609.1517333984375 C271.3786315917969,609.1517333984375 263.1045227050781,617.236328125 262.8699951171875,627.3599853515625 C262.8699951171875,764.8300170898438 316.4100036621094,894.0700073242188 413.6099853515625,991.27001953125 C510.80999755859375,1088.469970703125 640.0499877929688,1142 777.510009765625,1142 C777.510009765625,1142 777.510009765625,1142 777.510009765625,1142z"></path></g></g><g opacity="1" transform="matrix(1,0,0,1,0,0)"><g opacity="1" transform="matrix(1,0,0,1,0,0)"><path fill="rgb(255,255,255)" fill-opacity="1" d=" M1273.52001953125,646 C1283.8106689453125,645.9945068359375 1292.1500244140625,637.6506958007812 1292.1500244140625,627.3599853515625 C1292.1500244140625,489.8999938964844 1238.6199951171875,360.6600036621094 1141.4200439453125,263.4599914550781 C1044.219970703125,166.25999450683594 915,112.76000213623047 777.510009765625,112.76000213623047 C767.3863525390625,112.9945297241211 759.3016967773438,121.26862335205078 759.3016967773438,131.39500427246094 C759.3016967773438,141.52137756347656 767.3863525390625,149.79547119140625 777.510009765625,150.02999877929688 C1040.739990234375,150.02999877929688 1254.8900146484375,364.17999267578125 1254.8900146484375,627.4000244140625 C1254.9119873046875,637.675048828125 1263.244873046875,645.9945068359375 1273.52001953125,646 C1273.52001953125,646 1273.52001953125,646 1273.52001953125,646z"></path></g></g><g opacity="1" transform="matrix(1,0,0,1,0,0)"><g opacity="1" transform="matrix(1,0,0,1,0,0)"><path fill="rgb(236,27,36)" fill-opacity="1" d=" M777.510009765625,290.260009765625 C963.5775756835938,290.260009765625 1114.6500244140625,441.33245849609375 1114.6500244140625,627.4000244140625 C1114.6500244140625,813.4675903320312 963.5775756835938,964.5400390625 777.510009765625,964.5400390625 C591.4424438476562,964.5400390625 440.3699951171875,813.4675903320312 440.3699951171875,627.4000244140625 C440.3699951171875,441.33245849609375 591.4424438476562,290.260009765625 777.510009765625,290.260009765625z"></path></g></g><g opacity="1" transform="matrix(1,0,0,1,0,0)"><g opacity="1" transform="matrix(1,0,0,1,0,0)"><path fill="rgb(47,47,47)" fill-opacity="1" d=" M777.510009765625,668 C761.18115234375,668.0054321289062 745.4735717773438,661.740966796875 733.6300048828125,650.5 C729.5517578125,646.2988891601562 729.504150390625,639.6315307617188 733.52197265625,635.3726196289062 C737.5398559570312,631.1137084960938 744.1986694335938,630.773193359375 748.6300048828125,634.5999755859375 C764.8036499023438,649.9714965820312 790.1863403320312,649.9714965820312 806.3599853515625,634.5999755859375 C810.7913818359375,630.773193359375 817.4501342773438,631.1137084960938 821.468017578125,635.3726196289062 C825.48583984375,639.6315307617188 825.438232421875,646.2988891601562 821.3599853515625,650.5 C809.5233764648438,661.7329711914062 793.8282470703125,667.9967041015625 777.510009765625,668 C777.510009765625,668 777.510009765625,668 777.510009765625,668z"></path></g></g><g opacity="1" transform="matrix(1,0,0,1,0,0)"><g opacity="1" transform="matrix(1,0,0,1,0,0)"><path fill="rgb(47,47,47)" fill-opacity="1" d=" M938.0800170898438,613.0900268554688 C917.1500244140625,632.8900146484375 887.0800170898438,634.2100219726562 865.219970703125,614.8900146484375 C856.8400268554688,607.489990234375 844.030029296875,619.4199829101562 852.47998046875,626.8900146484375 C881.4199829101562,652.469970703125 921.780029296875,652.5900268554688 950.0800170898438,625.8300170898438 C958.27001953125,618.0800170898438 946.27001953125,605.3400268554688 938.0800170898438,613.0900268554688 C938.0800170898438,613.0900268554688 938.0800170898438,613.0900268554688 938.0800170898438,613.0900268554688z"></path></g></g><g opacity="1" transform="matrix(1,0,0,1,0,0)"><g opacity="1" transform="matrix(1,0,0,1,0,0)"><path fill="rgb(47,47,47)" fill-opacity="1" d=" M617,613.0900268554688 C637.9299926757812,632.8900146484375 668,634.2100219726562 689.8599853515625,614.8900146484375 C698.239990234375,607.489990234375 711.0399780273438,619.4199829101562 702.5999755859375,626.8900146484375 C673.6599731445312,652.469970703125 633.2999877929688,652.5900268554688 605,625.8300170898438 C596.760009765625,618.0800170898438 608.75,605.3400268554688 617,613.0900268554688 C617,613.0900268554688 617,613.0900268554688 617,613.0900268554688z"></path></g></g></g></g></g></svg>