<?xml version="1.0" encoding="utf-8"?>
<!-- Generator: Adobe Illustrator 26.1.0, SVG Export Plug-In . SVG Version: 6.00 Build 0)  -->
<svg version="1.1"
	 id="svg898" xmlns:cc="http://creativecommons.org/ns#" xmlns:dc="http://purl.org/dc/elements/1.1/" xmlns:rdf="http://www.w3.org/1999/02/22-rdf-syntax-ns#" xmlns:svg="http://www.w3.org/2000/svg"
	 xmlns="http://www.w3.org/2000/svg" xmlns:xlink="http://www.w3.org/1999/xlink" x="0px" y="0px" viewBox="0 0 913.8 266.7"
	 style="enable-background:new 0 0 913.8 266.7;" xml:space="preserve">
<style type="text/css">
	.st0{clip-path:url(#SVGID_00000000191125292776697330000002608376398422234785_);}
	.st1{fill:#F43F5E;}
	.st2{fill:#E11D48;}
</style>
<g id="g906" transform="matrix(1.3333333,0,0,-1.3333333,-213.26918,477.93772)">
	<g id="g908">
		<g>
			<defs>
				<rect id="SVGID_1_" x="-167.6" y="-86.4" width="1340.4" height="691.3"/>
			</defs>
			<clipPath id="SVGID_00000014612476297367553890000007992719815178121346_">
				<use xlink:href="#SVGID_1_"  style="overflow:visible;"/>
			</clipPath>
			<g id="g910" style="clip-path:url(#SVGID_00000014612476297367553890000007992719815178121346_);">
				<g id="g916" transform="translate(340.3983,255.9821)">
					<g>
						<path id="path918_00000165932617395372635880000005937937960887153827_" class="st1" d="M0,0c-2.6-24.5-10.9-43.1-25.1-55.7
							c-14.1-12.7-38-19-71.4-19c-34,0-57,6-69.1,18S-182.4-25.8-179.7,0l9.4,89.1h51.2L-128.5,0c-1.4-13.8,0.8-24.6,6.7-32.4
							c5.9-7.8,14.7-11.8,26.4-11.8c11.2,0,21,3.6,29.4,10.9C-57.7-26-52.7-14.9-51.2,0l9.4,89.1H9.4L0,0z"/>
					</g>
				</g>
				<g id="g920" transform="translate(595.3099,296.8229)">
					<path id="path922" class="st1" d="M0,0c0.5,5.1-1.8,9.5-7,13.2c-5.2,3.7-11,5.5-17.2,5.5h-34.1l-4.1-38.9h34.6
						c7.4,0,13.7,1.8,18.9,5.3C-3.6-11.4-0.7-6.4,0,0 M44.2-111.7h-54.8l1,46.1c-0.5,3-1.6,5.9-3.3,8.5c-1.7,2.6-4.3,4.9-7.8,6.8
						c-5.1,0-13.7,0.2-25.7,0.5c-12,0.3-18.4,0.5-19.2,0.5l-6.6-62.5h-51.2l16.8,160H-0.5c14.4,0,27.4-3.7,39.1-11.1
						c11.6-7.4,16.7-17.9,15.3-31.5C53-3.5,48.8-11.5,41.6-18C34.3-24.6,25.4-29.2,14.7-32l-0.2-1.9c4.1-0.5,8.2-1.4,12.2-2.9
						s8.1-3,10.9-6c6.2-6.6,5.5-16.7,5.9-19.7L44.2-111.7z"/>
				</g>
				<g id="g924" transform="translate(828.5023,185.11)">
					<path id="path926" class="st1" d="M0,0h-69.4l-61.4,108.4L-142.2,0H-190l16.8,160h72.8l58.3-105.9L-31,160h47.8L0,0z"/>
				</g>
				<g id="g928" transform="translate(490.3075,358.4533)">
					<path id="path930" class="st2" d="M0,0h-139.2l-1.4-13.3H-1.4L0,0z"/>
				</g>
				<g id="g932" transform="translate(485.5453,313.1599)">
					<g>
						<path id="path934_00000168819850198904917380000009958917947908650162_" class="st2" d="M0,0h-88.2l-3.5-33.6h80.3l-3.4-32.4
							h-80.3l-6.5-62h-51.1l-2.8-26.7h139.2L0,0z"/>
					</g>
				</g>
			</g>
		</g>
	</g>
</g>
</svg>
